# xmcd CD database file
#
# Track frame offsets:
#	150
#	17536
#	36748
#	55255
#	68637
#	87942
#	102095
#	118954
#	135123
#	153133
#	170338
#	185877
#	204232
#	221445
#	237900
#	254474
#	274851
#	292247
#	308126
#
# Disc length: 4328 seconds
#
# Revision: 2
# Processed by: cddbd v1.4PL0 Copyright (c) Steve Scherf et al.
# Submitted via: CDex 1.50
#
DISCID=1310e613
DTITLE=Various Artist - Top Hits USA RC79
DYEAR=2003
DGENRE=Country
TTITLE0=Alan Jackson and Jimmy Buffett - It's Five O'Clock Somewhere
TTITLE1=Tim McGraw - Real Good Man
TTITLE2=Martina McBride - This One's For The Girls
TTITLE3=Kenny Chesney - No Shoes, No Shirt, No Problem
TTITLE4=Trace Adkins - Then They Do
TTITLE5=Faith Hill - You're Still Here (Single Version)
TTITLE6=Dierks Bentley - What Was I Thinkin' (Edit)
TTITLE7=Wynonna - What The World Needs
TTITLE8=Garry Allan - Tough Little Boys
TTITLE9=Terri Clark - Three Mississippi
TTITLE10=Joe Nichols - She Only Smokes When She Drinks
TTITLE11=Sara Evans - Backseat Of A Greyhound Bus
TTITLE12=Clay Walker - A Few Questions
TTITLE13=Emerson Drive - Only God (Could Stop Me Loving You)
TTITLE14=Keith Urban - Who Wouldn't Want To Be Me
TTITLE15=Sherie Austin - Streets Of Heaven
TTITLE16=Buddy Jewell - Help Pour Out The Rain (Lacey's Song)
TTITLE17=Amy Dalley - Love's Got An Attitude
TTITLE18=Dusty Drake - One Last Time
EXTD=YEAR: 2003
EXTT0=
EXTT1=
EXTT2=
EXTT3=
EXTT4=
EXTT5=
EXTT6=
EXTT7=
EXTT8=
EXTT9=
EXTT10=
EXTT11=
EXTT12=
EXTT13=
EXTT14=
EXTT15=
EXTT16=
EXTT17=
EXTT18=
PLAYORDER=
